<svg xmlns="http://www.w3.org/2000/svg" xmlns:xlink="http://www.w3.org/1999/xlink" contentStyleType="text/css" height="967px" preserveAspectRatio="none" style="width:1153px;height:967px;background:#FFFFFF;" version="1.1" viewBox="0 0 1153 967" width="1153px" zoomAndPan="magnify"><title>Model Context Protocol (MCP) / OpenAPI Server Overview</title><defs/><g><text fill="#000000" font-family="sans-serif" font-size="14" font-weight="bold" lengthAdjust="spacing" textLength="385.8545" x="376.5728" y="25.1074">Model Context Protocol (MCP) / OpenAPI Server Overview</text><!--cluster User-Side--><g id="cluster_User-Side"><path d="M8.5,431.6211 L74.8584,431.6211 A3.75,3.75 0 0 1 77.3584,434.1211 L84.3584,456.2422 L546.5,456.2422 A2.5,2.5 0 0 1 549,458.7422 L549,586.1211 A2.5,2.5 0 0 1 546.5,588.6211 L8.5,588.6211 A2.5,2.5 0 0 1 6,586.1211 L6,434.1211 A2.5,2.5 0 0 1 8.5,431.6211 " fill="none" style="stroke:#000000;stroke-width:1.5;"/><line style="stroke:#000000;stroke-width:1.5;" x1="6" x2="84.3584" y1="456.2422" y2="456.2422"/><text fill="#000000" font-family="sans-serif" font-size="14" font-weight="bold" lengthAdjust="spacing" textLength="65.3584" x="10" y="448.7285">User-Side</text></g><!--cluster LLM--><g id="cluster_LLM"><path d="M275.5,621.6211 L305.2656,621.6211 A3.75,3.75 0 0 1 307.7656,624.1211 L314.7656,646.2422 L546.5,646.2422 A2.5,2.5 0 0 1 549,648.7422 L549,827.1211 A2.5,2.5 0 0 1 546.5,829.6211 L275.5,829.6211 A2.5,2.5 0 0 1 273,827.1211 L273,624.1211 A2.5,2.5 0 0 1 275.5,621.6211 " fill="none" style="stroke:#000000;stroke-width:1.5;"/><line style="stroke:#000000;stroke-width:1.5;" x1="273" x2="314.7656" y1="646.2422" y2="646.2422"/><text fill="#000000" font-family="sans-serif" font-size="14" font-weight="bold" lengthAdjust="spacing" textLength="28.7656" x="277" y="638.7285">LLM</text></g><!--cluster OLLAMA--><g id="cluster_OLLAMA"><rect fill="none" height="139" rx="2.5" ry="2.5" style="stroke:#181818;stroke-width:1.0;" width="228" x="297" y="666.6211"/><rect fill="none" height="10" style="stroke:#181818;stroke-width:1.0;" width="15" x="505" y="671.6211"/><rect fill="none" height="2" style="stroke:#181818;stroke-width:1.0;" width="4" x="503" y="673.6211"/><rect fill="none" height="2" style="stroke:#181818;stroke-width:1.0;" width="4" x="503" y="677.6211"/><text fill="#000000" font-family="sans-serif" font-size="14" font-weight="bold" lengthAdjust="spacing" textLength="59.876" x="381.062" y="694.7285">OLLAMA</text></g><!--cluster TPS--><g id="cluster_TPS"><path d="M575.5,459.1211 L700.9619,459.1211 A3.75,3.75 0 0 1 703.4619,461.6211 L710.4619,483.7422 L1143.5,483.7422 A2.5,2.5 0 0 1 1146,486.2422 L1146,803.1211 A2.5,2.5 0 0 1 1143.5,805.6211 L575.5,805.6211 A2.5,2.5 0 0 1 573,803.1211 L573,461.6211 A2.5,2.5 0 0 1 575.5,459.1211 " fill="none" style="stroke:#000000;stroke-width:1.5;"/><line style="stroke:#000000;stroke-width:1.5;" x1="573" x2="710.4619" y1="483.7422" y2="483.7422"/><text fill="#000000" font-family="sans-serif" font-size="14" font-weight="bold" lengthAdjust="spacing" textLength="124.4619" x="577" y="476.2285">Tool-Provider Side</text></g><!--entity UI--><g id="elem_UI"><rect fill="#F1F1F1" height="104.4844" rx="2.5" ry="2.5" style="stroke:#181818;stroke-width:0.5;" width="267.2471" x="22.5" y="468.6211"/><rect fill="#F1F1F1" height="10" style="stroke:#181818;stroke-width:0.5;" width="15" x="269.7471" y="473.6211"/><rect fill="#F1F1F1" height="2" style="stroke:#181818;stroke-width:0.5;" width="4" x="267.7471" y="475.6211"/><rect fill="#F1F1F1" height="2" style="stroke:#181818;stroke-width:0.5;" width="4" x="267.7471" y="479.6211"/><text fill="#000000" font-family="sans-serif" font-size="14" lengthAdjust="spacing" textLength="69.2549" x="37.5" y="503.7285">&#171;UI Client&#187;</text><text fill="#000000" font-family="sans-serif" font-size="14" lengthAdjust="spacing" textLength="80.165" x="37.5" y="522.3496">&#171;Client App&#187;</text><text fill="#000000" font-family="sans-serif" font-size="14" lengthAdjust="spacing" textLength="53.6963" x="37.5" y="540.9707">ChatBox</text><a href="https://github.com/chatboxai/chatbox" target="_top" title="https://github.com/chatboxai/chatbox" xlink:actuate="onRequest" xlink:href="https://github.com/chatboxai/chatbox" xlink:show="new" xlink:title="https://github.com/chatboxai/chatbox" xlink:type="simple"><text fill="#0000FF" font-family="sans-serif" font-size="14" lengthAdjust="spacing" text-decoration="underline" textLength="227.2471" x="37.5" y="559.5918">https://github.com/chatboxai/chatbox</text></a></g><!--entity LLMAPI--><g id="elem_LLMAPI"><rect fill="#F1F1F1" height="104.4844" rx="2.5" ry="2.5" style="stroke:#181818;stroke-width:0.5;" width="208.0752" x="325" y="468.6211"/><rect fill="#F1F1F1" height="10" style="stroke:#181818;stroke-width:0.5;" width="15" x="513.0752" y="473.6211"/><rect fill="#F1F1F1" height="2" style="stroke:#181818;stroke-width:0.5;" width="4" x="511.0752" y="475.6211"/><rect fill="#F1F1F1" height="2" style="stroke:#181818;stroke-width:0.5;" width="4" x="511.0752" y="479.6211"/><text fill="#000000" font-family="sans-serif" font-size="14" lengthAdjust="spacing" textLength="84.8203" x="340" y="503.7285">&#171;Library/API&#187;</text><text fill="#000000" font-family="sans-serif" font-size="14" lengthAdjust="spacing" textLength="53.6895" x="340" y="522.3496">LLM API</text><text fill="#000000" font-family="sans-serif" font-size="14" lengthAdjust="spacing" textLength="137.6895" x="340" y="540.9707">MCP Client (mcp-use)</text><a href="https://github.com/mcp-use" target="_top" title="https://github.com/mcp-use" xlink:actuate="onRequest" xlink:href="https://github.com/mcp-use" xlink:show="new" xlink:title="https://github.com/mcp-use" xlink:type="simple"><text fill="#0000FF" font-family="sans-serif" font-size="14" lengthAdjust="spacing" text-decoration="underline" textLength="168.0752" x="340" y="559.5918">https://github.com/mcp-use</text></a></g><!--entity MODEL--><g id="elem_MODEL"><rect fill="#F1F1F1" height="85.8633" rx="2.5" ry="2.5" style="stroke:#181818;stroke-width:0.5;" width="196.4268" x="313" y="703.6211"/><rect fill="#F1F1F1" height="10" style="stroke:#181818;stroke-width:0.5;" width="15" x="489.4268" y="708.6211"/><rect fill="#F1F1F1" height="2" style="stroke:#181818;stroke-width:0.5;" width="4" x="487.4268" y="710.6211"/><rect fill="#F1F1F1" height="2" style="stroke:#181818;stroke-width:0.5;" width="4" x="487.4268" y="714.6211"/><text fill="#000000" font-family="sans-serif" font-size="14" lengthAdjust="spacing" textLength="146.3096" x="328" y="738.7285">&#171;LLM Engine/Provider&#187;</text><text fill="#000000" font-family="sans-serif" font-size="14" lengthAdjust="spacing" textLength="156.4268" x="328" y="757.3496">Agent (LLM / LangChain)</text><text fill="#000000" font-family="sans-serif" font-size="14" lengthAdjust="spacing" textLength="65.3789" x="328" y="775.9707">DeepSeek</text></g><!--entity OAA--><g id="elem_OAA"><rect fill="#F1F1F1" height="85.8633" rx="2.5" ry="2.5" style="stroke:#181818;stroke-width:0.5;" width="331.7988" x="589" y="703.6211"/><rect fill="#F1F1F1" height="10" style="stroke:#181818;stroke-width:0.5;" width="15" x="900.7988" y="708.6211"/><rect fill="#F1F1F1" height="2" style="stroke:#181818;stroke-width:0.5;" width="4" x="898.7988" y="710.6211"/><rect fill="#F1F1F1" height="2" style="stroke:#181818;stroke-width:0.5;" width="4" x="898.7988" y="714.6211"/><text fill="#000000" font-family="sans-serif" font-size="14" lengthAdjust="spacing" textLength="125.3096" x="604" y="738.7285">&#171;OpenAPI Adapter&#187;</text><text fill="#000000" font-family="sans-serif" font-size="14" lengthAdjust="spacing" textLength="136.9375" x="604" y="757.3496">MCP OpenAPI Server</text><a href="https://github.com/ivo-toby/mcp-openapi-server" target="_top" title="https://github.com/ivo-toby/mcp-openapi-server" xlink:actuate="onRequest" xlink:href="https://github.com/ivo-toby/mcp-openapi-server" xlink:show="new" xlink:title="https://github.com/ivo-toby/mcp-openapi-server" xlink:type="simple"><text fill="#0000FF" font-family="sans-serif" font-size="14" lengthAdjust="spacing" text-decoration="underline" textLength="291.7988" x="604" y="775.9707">https://github.com/ivo-toby/mcp-openapi-server</text></a></g><!--entity MCP Server--><g id="elem_MCP Server"><rect fill="#F1F1F1" height="48.6211" rx="2.5" ry="2.5" style="stroke:#181818;stroke-width:0.5;" width="116.2344" x="643" y="496.1211"/><rect fill="#F1F1F1" height="10" style="stroke:#181818;stroke-width:0.5;" width="15" x="739.2344" y="501.1211"/><rect fill="#F1F1F1" height="2" style="stroke:#181818;stroke-width:0.5;" width="4" x="737.2344" y="503.1211"/><rect fill="#F1F1F1" height="2" style="stroke:#181818;stroke-width:0.5;" width="4" x="737.2344" y="507.1211"/><text fill="#000000" font-family="sans-serif" font-size="14" lengthAdjust="spacing" textLength="76.2344" x="658" y="531.2285">MCP Server</text></g><!--entity File System Tools--><g id="elem_File System Tools"><rect fill="#F1F1F1" height="48.6211" rx="2.5" ry="2.5" style="stroke:#181818;stroke-width:0.5;" width="151.248" x="794.5" y="496.1211"/><rect fill="#F1F1F1" height="10" style="stroke:#181818;stroke-width:0.5;" width="15" x="925.748" y="501.1211"/><rect fill="#F1F1F1" height="2" style="stroke:#181818;stroke-width:0.5;" width="4" x="923.748" y="503.1211"/><rect fill="#F1F1F1" height="2" style="stroke:#181818;stroke-width:0.5;" width="4" x="923.748" y="507.1211"/><text fill="#000000" font-family="sans-serif" font-size="14" lengthAdjust="spacing" textLength="111.248" x="809.5" y="531.2285">File System Tools</text></g><!--entity Memory / State Tools--><g id="elem_Memory / State Tools"><rect fill="#F1F1F1" height="48.6211" rx="2.5" ry="2.5" style="stroke:#181818;stroke-width:0.5;" width="173.041" x="956.5" y="722.1211"/><rect fill="#F1F1F1" height="10" style="stroke:#181818;stroke-width:0.5;" width="15" x="1109.541" y="727.1211"/><rect fill="#F1F1F1" height="2" style="stroke:#181818;stroke-width:0.5;" width="4" x="1107.541" y="729.1211"/><rect fill="#F1F1F1" height="2" style="stroke:#181818;stroke-width:0.5;" width="4" x="1107.541" y="733.1211"/><text fill="#000000" font-family="sans-serif" font-size="14" lengthAdjust="spacing" textLength="133.041" x="971.5" y="757.2285">Memory / State Tools</text></g><!--entity <<Restful Objects API>>\nApache Causeway--><g id="elem_&lt;&lt;Restful Objects API&gt;&gt;\nApache Causeway"><rect fill="#F1F1F1" height="67.2422" rx="2.5" ry="2.5" style="stroke:#181818;stroke-width:0.5;" width="176.9512" x="666.5" y="894.6211"/><rect fill="#F1F1F1" height="10" style="stroke:#181818;stroke-width:0.5;" width="15" x="823.4512" y="899.6211"/><rect fill="#F1F1F1" height="2" style="stroke:#181818;stroke-width:0.5;" width="4" x="821.4512" y="901.6211"/><rect fill="#F1F1F1" height="2" style="stroke:#181818;stroke-width:0.5;" width="4" x="821.4512" y="905.6211"/><text fill="#000000" font-family="sans-serif" font-size="14" lengthAdjust="spacing" textLength="136.9512" x="681.5" y="929.7285">&#171;Restful Objects API&#187;</text><text fill="#000000" font-family="sans-serif" font-size="14" lengthAdjust="spacing" textLength="116.7373" x="681.5" y="948.3496">Apache Causeway</text></g><g id="elem_GMN21"><path d="M249.5,897.1211 L249.5,958.9941 A0,0 0 0 0 249.5,958.9941 L572.1216,958.9941 A0,0 0 0 0 572.1216,958.9941 L572.1216,907.1211 L562.1216,897.1211 L415,897.1211 L411,789.7011 L407,897.1211 L249.5,897.1211 A0,0 0 0 0 249.5,897.1211 " fill="#FEFFDD" style="stroke:#181818;stroke-width:0.5;"/><path d="M562.1216,897.1211 L562.1216,907.1211 L572.1216,907.1211 L562.1216,897.1211 " fill="#FEFFDD" style="stroke:#181818;stroke-width:0.5;"/><text fill="#000000" font-family="sans-serif" font-size="13" lengthAdjust="spacing" textLength="44.0845" x="255.5" y="916.1494">OpenAI</text><text fill="#000000" font-family="sans-serif" font-size="13" lengthAdjust="spacing" textLength="41.1772" x="255.5" y="933.4404">Ollama</text><text fill="#000000" font-family="sans-serif" font-size="13" lengthAdjust="spacing" text-decoration="underline" textLength="60.709" x="255.5" y="950.7314">DeepSeek</text><text fill="#000000" font-family="sans-serif" font-size="13" lengthAdjust="spacing" textLength="237.3008" x="319.8208" y="950.7314">(Distilled/Q4) choosen, because it's small</text></g><g id="elem_GMN24"><path d="M147.5,45.6211 L147.5,384.1504 A0,0 0 0 0 147.5,384.1504 L425,384.1504 L429,468.6111 L433,384.1504 L710.4883,384.1504 A0,0 0 0 0 710.4883,384.1504 L710.4883,55.6211 L700.4883,45.6211 L147.5,45.6211 A0,0 0 0 0 147.5,45.6211 " fill="#FEFFDD" style="stroke:#181818;stroke-width:0.5;"/><path d="M700.4883,45.6211 L700.4883,55.6211 L710.4883,55.6211 L700.4883,45.6211 " fill="#FEFFDD" style="stroke:#181818;stroke-width:0.5;"/><ellipse cx="159" cy="60.4121" fill="#000000" rx="2.5" ry="2.5" style="stroke:#000000;stroke-width:0.0;"/><text fill="#000000" font-family="sans-serif" font-size="13" font-weight="bold" lengthAdjust="spacing" textLength="187.8145" x="165.5" y="64.6494">Dynamic Agent Orchestration:</text><text fill="#000000" font-family="sans-serif" font-size="13" lengthAdjust="spacing" textLength="244.2451" x="167.9473" y="81.9404">The client app uses mcp-use to connect to</text><text fill="#000000" font-family="sans-serif" font-size="13" font-weight="bold" lengthAdjust="spacing" textLength="234.0762" x="415.8042" y="81.9404">multiple MCP servers simultaneously,</text><text fill="#000000" font-family="sans-serif" font-size="13" lengthAdjust="spacing" textLength="96.1035" x="167.9473" y="99.2314">with the ability to</text><text fill="#000000" font-family="sans-serif" font-size="13" font-weight="bold" lengthAdjust="spacing" textLength="114.8989" x="267.6626" y="99.2314">dynamically select</text><text fill="#000000" font-family="sans-serif" font-size="13" lengthAdjust="spacing" textLength="193.6416" x="386.1733" y="99.2314">which server to use for each task.</text><text fill="#000000" font-family="sans-serif" font-size="13" lengthAdjust="spacing" textLength="377.1904" x="167.9473" y="116.5225">This enables modular, agent-based orchestration of AI workflows.</text><ellipse cx="159" cy="129.5762" fill="#000000" rx="2.5" ry="2.5" style="stroke:#000000;stroke-width:0.0;"/><text fill="#000000" font-family="sans-serif" font-size="13" font-weight="bold" lengthAdjust="spacing" textLength="141.5908" x="165.5" y="133.8135">Flexible Server Config:</text><text fill="#000000" font-family="sans-serif" font-size="13" lengthAdjust="spacing" textLength="127.8608" x="167.9473" y="151.1045">MCP servers &#8212; either</text><text fill="#000000" font-family="sans-serif" font-size="13" font-weight="bold" lengthAdjust="spacing" textLength="93.1963" x="299.4199" y="151.1045">local or remote</text><text fill="#000000" font-family="sans-serif" font-size="13" lengthAdjust="spacing" textLength="55.6436" x="396.228" y="151.1045">&#8212; can be</text><text fill="#000000" font-family="sans-serif" font-size="13" font-weight="bold" lengthAdjust="spacing" textLength="210.2471" x="455.4834" y="151.1045">configured declaratively via JSON</text><text fill="#000000" font-family="sans-serif" font-size="13" lengthAdjust="spacing" textLength="11.5591" x="167.9473" y="168.3955">or</text><text fill="#000000" font-family="sans-serif" font-size="13" font-weight="bold" lengthAdjust="spacing" textLength="108.3735" x="183.1182" y="168.3955">programmatically</text><text fill="#000000" font-family="sans-serif" font-size="13" lengthAdjust="spacing" textLength="295.5659" x="291.4917" y="168.3955">, allowing adaptive deployments tailored to different</text><text fill="#000000" font-family="sans-serif" font-size="13" lengthAdjust="spacing" textLength="145.228" x="167.9473" y="185.6865">runtime contexts or tools.</text><ellipse cx="159" cy="198.7402" fill="#000000" rx="2.5" ry="2.5" style="stroke:#000000;stroke-width:0.0;"/><text fill="#000000" font-family="sans-serif" font-size="13" font-weight="bold" lengthAdjust="spacing" textLength="128.5591" x="165.5" y="202.9775">LLM Interoperability:</text><text fill="#000000" font-family="sans-serif" font-size="13" lengthAdjust="spacing" textLength="456.7075" x="167.9473" y="220.2686">Language models (e.g. OpenAI, Ollama, DeepSeek) are accessed via standard</text><text fill="#000000" font-family="sans-serif" font-size="13" lengthAdjust="spacing" textLength="14.4473" x="153.5" y="237.5596">&#160;&#160;&#160;&#160;</text><text fill="#000000" font-family="sans-serif" font-size="13" font-weight="bold" lengthAdjust="spacing" textLength="124.9663" x="167.9473" y="237.5596">LangChain adapters</text><text fill="#000000" font-family="sans-serif" font-size="13" lengthAdjust="spacing" textLength="362.7495" x="292.9136" y="237.5596">, abstracting away vendor-specific logic and enabling seamless</text><text fill="#000000" font-family="sans-serif" font-size="13" lengthAdjust="spacing" textLength="205.9307" x="167.9473" y="254.8506">switching or combination of models.</text><ellipse cx="159" cy="267.9043" fill="#000000" rx="2.5" ry="2.5" style="stroke:#000000;stroke-width:0.0;"/><text fill="#000000" font-family="sans-serif" font-size="13" font-weight="bold" lengthAdjust="spacing" textLength="130.7363" x="165.5" y="272.1416">Tool Access Control:</text><text fill="#000000" font-family="sans-serif" font-size="13" lengthAdjust="spacing" textLength="510.8467" x="167.9473" y="289.4326">Agents can be granted selective access to tools (e.g. files, APIs, memory) via centralized</text><text fill="#000000" font-family="sans-serif" font-size="13" lengthAdjust="spacing" textLength="527.541" x="167.9473" y="306.7236">configuration in mcp-use, ensuring intentional permissioning and reduced risk of unintended</text><text fill="#000000" font-family="sans-serif" font-size="13" lengthAdjust="spacing" textLength="86.7217" x="167.9473" y="324.0146">tool invocation.</text><ellipse cx="159" cy="337.0684" fill="#000000" rx="2.5" ry="2.5" style="stroke:#000000;stroke-width:0.0;"/><text fill="#000000" font-family="sans-serif" font-size="13" font-weight="bold" lengthAdjust="spacing" textLength="163.2173" x="165.5" y="341.3057">Hosted &amp; Web Integration:</text><text fill="#000000" font-family="sans-serif" font-size="13" lengthAdjust="spacing" textLength="195.1143" x="167.9473" y="358.5967">mcp-use is designed to operate in</text><text fill="#000000" font-family="sans-serif" font-size="13" font-weight="bold" lengthAdjust="spacing" textLength="314.2534" x="366.6733" y="358.5967">headless, hosted, or browser-based environments,</text><text fill="#000000" font-family="sans-serif" font-size="13" lengthAdjust="spacing" textLength="89.6226" x="167.9473" y="375.8877">supporting both</text><text fill="#000000" font-family="sans-serif" font-size="13" font-weight="bold" lengthAdjust="spacing" textLength="55.6372" x="261.1816" y="375.8877">local dev</text><text fill="#000000" font-family="sans-serif" font-size="13" lengthAdjust="spacing" textLength="21.6899" x="320.4307" y="375.8877">and</text><text fill="#000000" font-family="sans-serif" font-size="13" font-weight="bold" lengthAdjust="spacing" textLength="155.2827" x="345.7324" y="375.8877">production deployments.</text></g><!--link UI to LLMAPI--><g id="link_UI_LLMAPI"><path d="M289.57,520.6211 C301.37,520.6211 307.17,520.6211 318.97,520.6211 " fill="none" id="UI-to-LLMAPI" style="stroke:#181818;stroke-width:1.0;"/><polygon fill="#181818" points="324.97,520.6211,315.97,516.6211,319.97,520.6211,315.97,524.6211,324.97,520.6211" style="stroke:#181818;stroke-width:1.0;"/></g><!--link LLMAPI to MODEL--><g id="link_LLMAPI_MODEL"><path d="M424.4101,578.7119 C421.2401,618.2219 417.8605,660.3004 414.8805,697.3904 " fill="none" id="LLMAPI-MODEL" style="stroke:#181818;stroke-width:1.0;"/><polygon fill="#181818" points="424.89,572.7311,420.183,581.3824,424.4901,577.7151,428.1574,582.0222,424.89,572.7311" style="stroke:#181818;stroke-width:1.0;"/><polygon fill="#181818" points="414.4,703.3711,419.1079,694.7204,414.8004,698.3872,411.1336,694.0797,414.4,703.3711" style="stroke:#181818;stroke-width:1.0;"/></g><!--link MCP Server to OAA--><g id="link_MCP Server_OAA"><path d="M706.68,545.1711 C715.72,582.6911 732.1238,650.7282 743.4138,697.5582 " fill="none" id="MCP Server-to-OAA" style="stroke:#181818;stroke-width:1.0;"/><polygon fill="#181818" points="744.82,703.3911,746.5993,693.7043,743.6482,698.5304,738.8221,695.5792,744.82,703.3911" style="stroke:#181818;stroke-width:1.0;"/></g><!--link MCP Server to File System Tools--><g id="link_MCP Server_File System Tools"><path d="M759.09,520.6211 C770.79,520.6211 776.49,520.6211 788.19,520.6211 " fill="none" id="MCP Server-to-File System Tools" style="stroke:#181818;stroke-width:1.0;"/><polygon fill="#181818" points="794.19,520.6211,785.19,516.6211,789.19,520.6211,785.19,524.6211,794.19,520.6211" style="stroke:#181818;stroke-width:1.0;"/></g><!--link MCP Server to Memory / State Tools--><g id="link_MCP Server_Memory / State Tools"><path d="M717.77,545.2111 C731.55,562.6011 752.7,585.1311 777,596.6211 C842.45,627.5711 875.61,578.6611 939,613.6211 C983.83,638.3511 1013.3245,685.8761 1029.1745,716.6761 " fill="none" id="MCP Server-to-Memory / State Tools" style="stroke:#181818;stroke-width:1.0;"/><polygon fill="#181818" points="1031.92,722.0111,1031.3585,712.1783,1029.6321,717.5652,1024.2451,715.8389,1031.92,722.0111" style="stroke:#181818;stroke-width:1.0;"/></g><!--link OAA to <<Restful Objects API>>\nApache Causeway--><g id="link_OAA_&lt;&lt;Restful Objects API&gt;&gt;\nApache Causeway"><path d="M755,789.7011 C755,821.7211 755,859.1511 755,888.5411 " fill="none" id="OAA-to-&lt;&lt;Restful Objects API&gt;&gt;\nApache Causeway" style="stroke:#181818;stroke-width:1.0;"/><polygon fill="#181818" points="755,894.5411,759,885.5411,755,889.5411,751,885.5411,755,894.5411" style="stroke:#181818;stroke-width:1.0;"/><text fill="#000000" font-family="sans-serif" font-size="13" lengthAdjust="spacing" textLength="72.9663" x="756" y="860.6494">RESTful API</text></g><!--link LLMAPI to MCP Server--><g id="link_LLMAPI_MCP Server"><path d="M533.12,557.4811 C571.38,562.6211 603.9665,560.4922 642.2165,547.1122 " fill="none" id="LLMAPI-to-MCP Server" style="stroke:#181818;stroke-width:1.0;"/><polygon fill="#181818" points="647.88,545.1311,638.064,544.3271,643.1604,546.782,640.7055,551.8784,647.88,545.1311" style="stroke:#181818;stroke-width:1.0;"/></g><!--SRC=[TLLDR-is4BpxLonyQ9F27vUU7Wm3QfA7fh3hz3b13uaFb4JBR2XI82axRX6WFwA_iB-aioIT-A5vFXYoHCtEpCwkWmfQqjBMKjELDK6-1BfpDjZAQhfONjrTqfHMdJJ5tIsjfTjBHojyxPKy30QTg9v58sduuAKRhrKjX_JNWEAdicrdZJI1XhFPmorTQOKVy_cJcStIDHLTnx-lTYByP5-UpEFZBeJEVvfE6nLsVJa1nhJ2qzA-27Mwsco693mzt7vKQA5A9znn2heClLWi2PTF1aeo0xfegsxSUtdvZOBvSIu3103aKf0nTkFvwURhcGEuTTB-JcYrM1JBuiqIeaSm1AKRqoWZfp1w3yySCosQo8sVJcaXJ0DNb077QocxjPJF6sQpN5tVBDxG4WsQZK7f_SdhLxpkhTNZKo5ABGBG_TtwVsnXtwdJHIswa8YnSry7u1k-gRqT1riUeu4MRuXEZNry8tkvAefOyf4n4zQ6nZNOV_naJe-V5UAvFleWMs8fVlF1EJwubArrHtYt3YB8qzdN0P1J2LZ_HVgmxJMjoZza5Jpba1GmQoVfIg3h1t7Sq2SQVhbPt_DH71aE1jdeMEUzy61WB4gLDWJRajsUzI0QbbApqbgq8bxE-lcfcxDfFwUBQ-M3qbhMqzz-lAHgPwsNPaIbh9WBgV2z9zyAhGVIrCJLSirWEowOS_W3pShvzT68LbMKWhHoaEI34q5PyobMluV6Aes0w3f20Kyvwy133eo1Atm9jBRNGNMy6g0tDH5K5DyMHjhUw-CeeXuG00g05gNIAXpp-tLY0-f7lAu1F9kMSphiLBNBU7oIQs-j8uaEK13-UPAfAay8KAcPewrxBTo812iRbyBBckovFhQYkAM3TSzRRGz-aXpvhEMBAZa_gHxssrOroOnpMV_-_Gz9oC0HlAKjM0EV718LPAJD9ofXq1W-KKMSte56BIjG0uczXD2z4lJBUlLhh60ZMkTiuqJRuaWqW-6WH8EcCWq9dZEy3A1EssCBWHu-A6qP7GRLQhkL3hSZfkjDKAtaNl6czbmaSDApOjuUjtZaC7ukDoJfvOtIyq9eUTLxkf2JPf9ZEieP7T4fdPSa73fQLTApsQpBe- -rS7KACagTLbJI01-pj9AxKeMe3jD4UqJNkh7lPAMsoAUs3Ru1bXhCvxmKBJhj8xP7egeTtuOux9LIcRSc9_9PB8yu5P5Z_EjoLYUjSGBygM6m7uxKEONiTTB5xaRliXTRR1e_ue77TnktoMLKNW7D2Qt-b7LUcAdzYHKCo4CqWY3VEsQkKD7mOoG9dMYLz_WHBO5kjBQlmCWf_yogUXFFrncVIG5XZnmoH5Rxi_MiuZlwNPQnnytvR9_c66DJIwyQaz8JOu1r0PA0s4bHiyqZsaMm4JjSEWmC_hpJM4cpLywQcCCqtxxlEkjYEx7eTkyJKijzd0rMb88ELT6IionFtXVNVm00]--></g></svg>